<svg xmlns="http://www.w3.org/2000/svg"  viewBox="0 0 64 64" width="64px" height="64px"><path fill="#72caaf" d="M57,13v38c0,3.31-2.69,6-6,6H13c-3.31,0-6-2.69-6-6V13c0-3.31,2.69-6,6-6h38C54.31,7,57,9.69,57,13z"/><path fill="#5dbc9d" d="M14,7v50h-1c-3.31,0-6-2.69-6-6V13c0-3.31,2.69-6,6-6H14z"/><path fill="#ffeb9b" d="M57,47.93V51c0,3.31-2.69,6-6,6h-1.27L7,28.03v-14L57,47.93z"/><path fill="#faefde" d="M57,13v21.97h-0.03C41.99,34.43,30.01,22.12,30,7.01V7h21C54.31,7,57,9.69,57,13z"/><path fill="#72caaf" d="M57,13v9.97C48.62,22.45,42,15.5,42,7h9C54.31,7,57,9.69,57,13z"/><path fill="#fff8ee" d="M57,34.54c0,0.14-0.01,0.28-0.03,0.43C41.99,34.43,30.01,22.12,30,7.01C30.1,7,30.2,7,30.29,7	c1.95,0,3.67,1.44,3.95,3.43c0.13,0.86,0.3,1.73,0.52,2.57c2.18,8.46,8.78,15.06,17.24,17.23c0.56,0.15,1.13,0.27,1.71,0.38	C55.64,30.96,57,32.64,57,34.54z"/><rect width="12" height="50" x="14" y="7" fill="#fff8ee"/><rect width="6" height="23" x="17" y="7" fill="#85cbf8"/><path fill="#8d6c9f" d="M51,58H13c-3.859,0-7-3.141-7-7V13c0-3.859,3.141-7,7-7h38c3.859,0,7,3.141,7,7v38	C58,54.859,54.859,58,51,58z M13,8c-2.757,0-5,2.243-5,5v38c0,2.757,2.243,5,5,5h38c2.757,0,5-2.243,5-5V13c0-2.757-2.243-5-5-5H13z"/><circle cx="20" cy="37" r="9" fill="#85cbf8"/><path fill="#8d6c9f" d="M20,47c-5.514,0-10-4.486-10-10s4.486-10,10-10s10,4.486,10,10S25.514,47,20,47z M20,29	c-4.411,0-8,3.589-8,8s3.589,8,8,8s8-3.589,8-8S24.411,29,20,29z"/><path fill="#85cbf8" d="M53,44c0,4.97-4.03,9-9,9s-9-4.03-9-9c0-1.96,0.63-3.78,1.7-5.25C37.58,39.53,38.74,40,40,40	c1.63,0,3.09-0.79,4-2c0.91,1.21,2.37,2,4,2c1.26,0,2.42-0.47,3.3-1.25C52.37,40.22,53,42.04,53,44z"/><path fill="#ed7899" d="M53,44H35c0-1.96,0.63-3.78,1.7-5.25C37.58,39.53,38.74,40,40,40c1.63,0,3.09-0.79,4-2	c0.91,1.21,2.37,2,4,2c1.26,0,2.42-0.47,3.3-1.25C52.37,40.22,53,42.04,53,44z"/><path fill="#8d6c9f" d="M44,54c-5.514,0-10-4.486-10-10c0-2.12,0.654-4.14,1.892-5.839c0.166-0.228,0.421-0.375,0.701-0.405	c0.278-0.028,0.56,0.059,0.771,0.246C38.09,38.646,39.025,39,40,39c1.25,0,2.446-0.599,3.201-1.602c0.377-0.502,1.221-0.502,1.598,0	C45.554,38.401,46.75,39,48,39c0.975,0,1.91-0.354,2.637-0.998c0.21-0.188,0.488-0.275,0.771-0.246	c0.28,0.03,0.535,0.178,0.701,0.405C53.346,39.86,54,41.88,54,44C54,49.514,49.514,54,44,54z M36.974,40.179	C36.334,41.34,36,42.644,36,44c0,4.411,3.589,8,8,8s8-3.589,8-8c0-1.356-0.334-2.66-0.974-3.821C50.115,40.714,49.073,41,48,41	c-1.479,0-2.908-0.558-4-1.531C42.908,40.442,41.479,41,40,41C38.927,41,37.885,40.714,36.974,40.179z"/><path fill="#8d6c9f" d="M14,58c-0.553,0-1-0.447-1-1V44c0-0.553,0.447-1,1-1s1,0.447,1,1v13C15,57.553,14.553,58,14,58z"/><path fill="#8d6c9f" d="M26,58c-0.553,0-1-0.447-1-1v-8c0-0.553,0.447-1,1-1s1,0.447,1,1v8C27,57.553,26.553,58,26,58z"/><path fill="#8d6c9f" d="M14,31c-0.553,0-1-0.447-1-1V7c0-0.553,0.447-1,1-1s1,0.447,1,1v23C15,30.553,14.553,31,14,31z"/><path fill="#8d6c9f" d="M21,24.935h-2c-0.553,0-1-0.447-1-1s0.447-1,1-1h2c0.553,0,1,0.447,1,1S21.553,24.935,21,24.935z"/><path fill="#8d6c9f" d="M21,20.479h-2c-0.553,0-1-0.447-1-1s0.447-1,1-1h2c0.553,0,1,0.447,1,1S21.553,20.479,21,20.479z"/><path fill="#8d6c9f" d="M21,16.021h-2c-0.553,0-1-0.447-1-1s0.447-1,1-1h2c0.553,0,1,0.447,1,1S21.553,16.021,21,16.021z"/><path fill="#8d6c9f" d="M21,11.565h-2c-0.553,0-1-0.447-1-1s0.447-1,1-1h2c0.553,0,1,0.447,1,1S21.553,11.565,21,11.565z"/><path fill="#8d6c9f" d="M26,31c-0.553,0-1-0.447-1-1v-9c0-0.553,0.447-1,1-1s1,0.447,1,1v9C27,30.553,26.553,31,26,31z"/><path fill="#8d6c9f" d="M26,17c-0.553,0-1-0.447-1-1V7c0-0.553,0.447-1,1-1s1,0.447,1,1v9C27,16.553,26.553,17,26,17z"/><path fill="#8d6c9f" d="M56.999,49c-0.194,0-0.39-0.057-0.563-0.174l-4.08-2.78c-0.456-0.311-0.574-0.933-0.263-1.39	c0.312-0.455,0.933-0.572,1.39-0.263l4.08,2.78c0.456,0.311,0.574,0.933,0.263,1.39C57.633,48.847,57.318,49,56.999,49z"/><path fill="#8d6c9f" d="M13.999,19.76c-0.193,0-0.389-0.056-0.562-0.173l-7-4.76c-0.456-0.311-0.575-0.933-0.265-1.39	c0.311-0.456,0.932-0.575,1.39-0.265l7,4.76c0.456,0.311,0.575,0.933,0.265,1.39C14.634,19.606,14.319,19.76,13.999,19.76z"/><path fill="#8d6c9f" d="M43.339,39.71c-0.193,0-0.389-0.056-0.562-0.173l-17.34-11.79c-0.456-0.311-0.575-0.933-0.265-1.39	c0.311-0.455,0.931-0.576,1.39-0.265l17.34,11.79c0.456,0.311,0.575,0.933,0.265,1.39C43.974,39.557,43.659,39.71,43.339,39.71z"/><path fill="#8d6c9f" d="M35.769,48.63c-0.194,0-0.391-0.057-0.563-0.174l-8.279-5.649c-0.456-0.312-0.574-0.934-0.263-1.39	c0.312-0.457,0.936-0.572,1.39-0.263l8.279,5.649c0.456,0.312,0.574,0.934,0.263,1.39C36.402,48.478,36.088,48.63,35.769,48.63z"/><path fill="#8d6c9f" d="M49.499,58c-0.194,0-0.391-0.057-0.563-0.174l-5.87-4.01c-0.456-0.312-0.573-0.935-0.262-1.391	c0.313-0.455,0.934-0.571,1.391-0.262l5.87,4.01c0.456,0.312,0.573,0.935,0.262,1.391C50.132,57.848,49.818,58,49.499,58z"/><path fill="#8d6c9f" d="M12.629,32.84c-0.194,0-0.39-0.057-0.563-0.174l-5.63-3.84c-0.456-0.312-0.574-0.934-0.263-1.39	c0.312-0.457,0.934-0.572,1.39-0.263l5.63,3.84c0.456,0.312,0.574,0.934,0.263,1.39C13.263,32.688,12.948,32.84,12.629,32.84z"/><path fill="#8d6c9f" d="M46.38,19c-0.266,0-0.53-0.105-0.728-0.313C42.652,15.509,41,11.358,41,7c0-0.553,0.447-1,1-1	s1,0.447,1,1c0,3.846,1.459,7.509,4.107,10.313c0.379,0.401,0.36,1.034-0.041,1.414C46.873,18.909,46.626,19,46.38,19z"/><path fill="#8d6c9f" d="M57.001,23.97c-0.021,0-0.042-0.001-0.063-0.002c-2.835-0.176-5.592-1.062-7.972-2.563	c-0.467-0.294-0.607-0.912-0.313-1.379c0.294-0.467,0.912-0.606,1.379-0.313c2.098,1.322,4.527,2.103,7.028,2.258	c0.552,0.034,0.971,0.509,0.937,1.06C57.965,23.562,57.525,23.97,57.001,23.97z"/><path fill="#8d6c9f" d="M30.879,15c-0.446,0-0.853-0.301-0.968-0.753C29.307,11.873,29,9.435,29,7c0-0.553,0.447-1,1-1	s1,0.447,1,1c0,2.269,0.285,4.54,0.849,6.753c0.137,0.535-0.187,1.08-0.722,1.216C31.044,14.99,30.961,15,30.879,15z"/><path fill="#8d6c9f" d="M57.001,35.98c-0.013,0-0.024,0-0.037-0.001c-2.858-0.103-5.646-0.612-8.287-1.514	c-0.522-0.179-0.802-0.747-0.623-1.27c0.178-0.522,0.745-0.803,1.27-0.623c2.455,0.838,5.05,1.312,7.713,1.408	c0.552,0.02,0.983,0.483,0.963,1.035C57.979,35.556,57.536,35.98,57.001,35.98z"/><g><path fill="#8d6c9f" d="M31.227,19.137c-0.392,0-0.763-0.231-0.923-0.615c-0.213-0.51,0.028-1.096,0.538-1.308l1.847-0.77 c0.509-0.213,1.095,0.028,1.308,0.538s-0.028,1.096-0.538,1.308l-1.847,0.77C31.485,19.112,31.355,19.137,31.227,19.137z"/><path fill="#8d6c9f" d="M33.605,23.677c-0.329,0-0.65-0.162-0.842-0.459c-0.299-0.464-0.165-1.083,0.3-1.382l1.682-1.083 c0.464-0.298,1.083-0.165,1.382,0.3c0.299,0.464,0.165,1.083-0.3,1.382l-1.682,1.083C33.979,23.625,33.791,23.677,33.605,23.677z"/><path fill="#8d6c9f" d="M36.744,27.728c-0.269,0-0.536-0.107-0.732-0.319c-0.376-0.405-0.353-1.037,0.052-1.413 l1.466-1.361c0.404-0.376,1.038-0.354,1.413,0.052c0.376,0.405,0.353,1.037-0.052,1.413l-1.466,1.361 C37.232,27.639,36.988,27.728,36.744,27.728z"/><path fill="#8d6c9f" d="M40.551,31.158c-0.21,0-0.421-0.065-0.602-0.202c-0.44-0.332-0.528-0.959-0.195-1.4l1.205-1.597 c0.331-0.442,0.958-0.529,1.4-0.195c0.44,0.332,0.528,0.959,0.195,1.4l-1.205,1.597C41.153,31.021,40.854,31.158,40.551,31.158z"/><path fill="#8d6c9f" d="M44.9,33.868c-0.152,0-0.307-0.034-0.451-0.108c-0.492-0.249-0.689-0.851-0.439-1.344l0.904-1.784 c0.249-0.493,0.853-0.692,1.344-0.439c0.492,0.249,0.689,0.851,0.439,1.344l-0.904,1.784C45.617,33.668,45.266,33.868,44.9,33.868 z"/></g><g><polygon fill="#fff8ee" points="20,31 16,41 20,40 24,41"/><path fill="#8d6c9f" d="M24,42c-0.081,0-0.162-0.01-0.242-0.03L20,41.031l-3.758,0.938 c-0.362,0.093-0.748-0.029-0.995-0.313c-0.247-0.282-0.315-0.68-0.176-1.028l4-10C19.224,30.249,19.591,30,20,30 s0.776,0.249,0.929,0.629l4,10c0.14,0.349,0.071,0.746-0.176,1.028C24.561,41.878,24.285,42,24,42z M20,39 c0.081,0,0.163,0.01,0.242,0.03l2.103,0.525L20,33.692l-2.345,5.863l2.103-0.525C19.837,39.01,19.919,39,20,39z"/></g></svg>